<?xml version="1.0" encoding="UTF-8"?><svg xmlns="http://www.w3.org/2000/svg" xmlns:xlink="http://www.w3.org/1999/xlink" width="150" zoomAndPan="magnify" viewBox="0 0 150 149.999998" height="149.999998" preserveAspectRatio="xMidYMid meet" version="1.0"><path fill="rgb(100%, 63.919067%, 60.389709%)" d="M 75 0.289062 C 33.578125 0.289062 0 33.867188 0 75.289062 C 0 112.890625 27.699219 143.9375 63.789062 149.359375 L 63.789062 95.164062 L 45.230469 95.164062 L 45.230469 75.449219 L 63.789062 75.449219 L 63.789062 62.332031 C 63.789062 40.609375 74.371094 31.078125 92.421875 31.078125 C 101.066406 31.078125 105.640625 31.71875 107.804688 32.011719 L 107.804688 49.222656 L 95.492188 49.222656 C 87.832031 49.222656 85.152344 56.488281 85.152344 64.679688 L 85.152344 75.457031 L 107.613281 75.457031 L 104.566406 95.167969 L 85.152344 95.167969 L 85.152344 149.527344 C 121.757812 144.554688 150 113.253906 150 75.289062 C 150 33.867188 116.421875 0.289062 75 0.289062 Z M 75 0.289062 " fill-opacity="1" fill-rule="nonzero"/></svg>