<?xml version="1.0" encoding="UTF-8"?><svg xmlns="http://www.w3.org/2000/svg" xmlns:xlink="http://www.w3.org/1999/xlink" width="150" zoomAndPan="magnify" viewBox="0 0 150 149.999998" height="149.999998" preserveAspectRatio="xMidYMid meet" version="1.0"><rect x="-15" width="180" fill="rgb(100%, 100%, 100%)" y="-15" height="179.999997" fill-opacity="1"/><rect x="-15" width="180" fill="rgb(100%, 100%, 100%)" y="-15" height="179.999997" fill-opacity="1"/><rect x="-15" width="180" fill="rgb(100%, 100%, 100%)" y="-15" height="179.999997" fill-opacity="1"/><path fill="rgb(100%, 63.919067%, 60.389709%)" d="M 75 59.359375 C 66.378906 59.359375 59.359375 66.378906 59.359375 75 C 59.359375 83.621094 66.378906 90.640625 75 90.640625 C 83.621094 90.640625 90.640625 83.625 90.640625 75 C 90.640625 66.375 83.625 59.359375 75 59.359375 Z M 75 59.359375 " fill-opacity="1" fill-rule="nonzero"/><path fill="rgb(100%, 63.919067%, 60.389709%)" d="M 97.5 50.480469 C 96.382812 50.480469 95.476562 51.386719 95.476562 52.5 C 95.476562 53.617188 96.382812 54.523438 97.5 54.523438 C 98.613281 54.523438 99.523438 53.617188 99.523438 52.5 C 99.523438 51.386719 98.613281 50.480469 97.5 50.480469 Z M 97.5 50.480469 " fill-opacity="1" fill-rule="nonzero"/><path fill="rgb(100%, 63.919067%, 60.389709%)" d="M 75 0 C 33.648438 0 0 33.648438 0 75 C 0 116.351562 33.648438 150 75 150 C 116.351562 150 150 116.351562 150 75 C 150 33.648438 116.351562 0 75 0 Z M 117.855469 88.5 C 117.855469 104.6875 104.6875 117.855469 88.5 117.855469 L 61.5 117.855469 C 45.3125 117.855469 32.140625 104.6875 32.140625 88.5 L 32.140625 61.5 C 32.140625 45.3125 45.3125 32.144531 61.5 32.144531 L 88.5 32.144531 C 104.6875 32.144531 117.855469 45.3125 117.855469 61.5 Z M 117.855469 88.5 " fill-opacity="1" fill-rule="nonzero"/><path fill="rgb(100%, 63.919067%, 60.389709%)" d="M 88.5 38.28125 L 61.5 38.28125 C 48.699219 38.28125 38.28125 48.699219 38.28125 61.5 L 38.28125 88.5 C 38.28125 101.300781 48.699219 111.71875 61.5 111.71875 L 88.5 111.71875 C 101.300781 111.71875 111.71875 101.300781 111.71875 88.5 L 111.71875 61.5 C 111.71875 48.699219 101.300781 38.28125 88.5 38.28125 Z M 75 96.78125 C 62.992188 96.78125 53.21875 87.007812 53.21875 75 C 53.21875 62.992188 62.992188 53.21875 75 53.21875 C 87.007812 53.21875 96.78125 62.992188 96.78125 75 C 96.78125 87.007812 87.007812 96.78125 75 96.78125 Z M 97.5 60.660156 C 92.996094 60.660156 89.335938 57 89.335938 52.5 C 89.335938 48 92.996094 44.339844 97.5 44.339844 C 102 44.339844 105.660156 48 105.660156 52.5 C 105.660156 57.003906 102 60.660156 97.5 60.660156 Z M 97.5 60.660156 " fill-opacity="1" fill-rule="nonzero"/></svg>