<?xml version="1.0" encoding="UTF-8"?><svg xmlns="http://www.w3.org/2000/svg" xmlns:xlink="http://www.w3.org/1999/xlink" width="810" zoomAndPan="magnify" viewBox="0 0 810 809.999993" height="809.999993" preserveAspectRatio="xMidYMid meet" version="1.0"><defs><clipPath id="clip-0"><path d="M 0 124.539062 L 810 124.539062 L 810 685 L 0 685 Z M 0 124.539062 " clip-rule="nonzero"/></clipPath></defs><path fill="rgb(100%, 100%, 100%)" d="M 172.476562 260.050781 C 185.128906 260.050781 197.40625 261.550781 209.25 264.203125 C 224.664062 187.378906 292.492188 129.492188 373.839844 129.492188 C 456.203125 129.492188 524.605469 188.871094 538.878906 267.121094 C 539.839844 267.105469 540.785156 266.996094 541.753906 266.996094 C 607.835938 266.996094 663.085938 312.792969 677.867188 374.359375 C 681.503906 374.019531 685.1875 373.792969 688.925781 373.792969 C 753.257812 373.792969 805.425781 425.976562 805.425781 490.335938 C 805.425781 554.6875 753.257812 606.855469 688.925781 606.855469 C 663.175781 606.855469 639.488281 598.410156 620.199219 584.277344 C 604.71875 630.476562 561.183594 663.820312 509.789062 663.820312 C 469.703125 663.820312 434.351562 643.570312 413.386719 612.730469 C 393.371094 652.785156 352.082031 680.351562 304.269531 680.351562 C 249.703125 680.351562 203.527344 644.539062 187.894531 595.140625 C 182.820312 595.597656 177.6875 595.910156 172.476562 595.910156 C 79.757812 595.910156 4.574219 520.734375 4.574219 427.980469 C 4.574219 335.230469 79.757812 260.050781 172.476562 260.050781 " fill-opacity="1" fill-rule="nonzero"/><g clip-path="url(#clip-0)"><path fill="rgb(100%, 100%, 100%)" d="M 172.476562 260.050781 L 172.476562 264.652344 C 184.769531 264.652344 196.699219 266.109375 208.242188 268.695312 C 209.457031 268.964844 210.714844 268.738281 211.753906 268.066406 C 212.796875 267.382812 213.515625 266.332031 213.757812 265.109375 C 221.25 227.757812 241.492188 195 269.753906 171.585938 C 298.015625 148.160156 334.265625 134.101562 373.839844 134.089844 C 413.90625 134.101562 450.53125 148.53125 478.921875 172.484375 C 507.308594 196.4375 527.40625 229.898438 534.351562 267.949219 C 534.753906 270.160156 536.6875 271.75 538.941406 271.722656 C 540.226562 271.695312 541.144531 271.589844 541.753906 271.597656 C 573.71875 271.597656 603.03125 282.65625 626.171875 301.175781 C 649.316406 319.703125 666.25 345.671875 673.390625 375.4375 C 673.921875 377.65625 676.015625 379.15625 678.296875 378.941406 C 681.835938 378.609375 685.367188 378.394531 688.925781 378.394531 C 719.835938 378.402344 747.777344 390.917969 768.042969 411.1875 C 788.300781 431.457031 800.816406 459.410156 800.816406 490.335938 C 800.816406 521.253906 788.300781 549.207031 768.042969 569.46875 C 747.777344 589.730469 719.835938 602.246094 688.925781 602.253906 C 664.191406 602.246094 641.464844 594.152344 622.921875 580.574219 C 621.734375 579.703125 620.199219 579.453125 618.808594 579.902344 C 617.414062 580.339844 616.300781 581.4375 615.832031 582.820312 C 608.414062 605.003906 594.238281 624.117188 575.746094 637.664062 C 557.25 651.222656 534.484375 659.21875 509.789062 659.21875 C 471.277344 659.21875 437.34375 639.777344 417.195312 610.144531 C 416.277344 608.796875 414.707031 608.03125 413.078125 608.140625 C 411.453125 608.25 410 609.21875 409.28125 610.675781 C 389.992188 649.230469 350.273438 675.753906 304.269531 675.753906 C 278 675.753906 253.789062 667.136719 234.230469 652.582031 C 214.675781 638.023438 199.796875 617.511719 192.289062 593.746094 C 191.632812 591.6875 189.636719 590.359375 187.480469 590.558594 C 182.496094 591.015625 177.507812 591.3125 172.476562 591.3125 C 127.378906 591.3125 86.574219 573.035156 57.011719 543.476562 C 27.445312 513.90625 9.179688 473.09375 9.171875 427.980469 C 9.179688 382.859375 27.445312 342.058594 57.011719 312.488281 C 86.574219 282.917969 127.371094 264.652344 172.476562 264.652344 L 172.476562 255.453125 C 77.214844 255.453125 -0.0195312 332.6875 -0.0273438 427.980469 C -0.0195312 523.277344 77.214844 600.511719 172.476562 600.511719 C 177.867188 600.511719 183.140625 600.1875 188.316406 599.722656 L 187.894531 595.140625 L 183.511719 596.523438 C 191.621094 622.167969 207.660156 644.269531 228.734375 659.964844 C 249.808594 675.652344 275.96875 684.953125 304.269531 684.953125 C 353.886719 684.945312 396.746094 656.34375 417.5 614.789062 L 413.386719 612.730469 L 409.585938 615.320312 C 431.363281 647.367188 468.132812 668.421875 509.789062 668.421875 C 536.488281 668.421875 561.183594 659.75 581.183594 645.085938 C 601.179688 630.421875 616.515625 609.757812 624.554688 585.742188 L 620.199219 584.277344 L 617.476562 587.988281 C 637.503906 602.660156 662.171875 611.457031 688.925781 611.457031 C 755.800781 611.445312 810.015625 557.222656 810.023438 490.335938 C 810.015625 423.433594 755.808594 369.203125 688.925781 369.191406 C 685.007812 369.191406 681.179688 369.425781 677.433594 369.777344 L 677.867188 374.359375 L 682.339844 373.289062 C 674.703125 341.484375 656.628906 313.765625 631.921875 293.996094 C 607.226562 274.222656 575.863281 262.386719 541.753906 262.398438 C 540.414062 262.398438 539.445312 262.523438 538.808594 262.523438 L 538.878906 267.121094 L 543.398438 266.296875 C 536.066406 226.089844 514.828125 190.742188 484.859375 165.449219 C 454.890625 140.148438 416.132812 124.890625 373.839844 124.890625 C 332.066406 124.890625 293.722656 139.769531 263.878906 164.496094 C 234.042969 189.222656 212.664062 223.824219 204.738281 263.296875 L 209.25 264.203125 L 210.253906 259.71875 C 198.109375 256.996094 185.496094 255.453125 172.476562 255.453125 L 172.476562 260.050781 " fill-opacity="1" fill-rule="nonzero"/></g></svg>