<?xml version="1.0" encoding="UTF-8"?><svg xmlns="http://www.w3.org/2000/svg" xmlns:xlink="http://www.w3.org/1999/xlink" width="810" zoomAndPan="magnify" viewBox="0 0 810 809.999993" height="809.999993" preserveAspectRatio="xMidYMid meet" version="1.0"><defs><clipPath id="clip-0"><path d="M 0 100.742188 L 810 100.742188 L 810 708.992188 L 0 708.992188 Z M 0 100.742188 " clip-rule="nonzero"/></clipPath></defs><g clip-path="url(#clip-0)"><path fill="rgb(100%, 100%, 100%)" d="M 680.789062 219.226562 C 669.976562 219.226562 659.484375 220.574219 649.453125 223.089844 C 632.355469 152.875 569.035156 100.742188 493.53125 100.742188 C 439.429688 100.742188 391.585938 127.5 362.515625 168.5 C 328.347656 130.492188 278.796875 106.582031 223.65625 106.582031 C 120.582031 106.582031 37.019531 190.105469 37.019531 293.140625 C 37.019531 322.132812 43.636719 349.578125 55.4375 374.054688 C 21.539062 409.632812 0.730469 457.792969 0.730469 510.804688 C 0.730469 620.339844 89.566406 709.140625 199.148438 709.140625 C 276.992188 709.140625 344.351562 664.320312 376.851562 599.097656 C 394.789062 612.941406 417.265625 621.195312 441.679688 621.195312 C 484.570312 621.195312 521.5 595.765625 538.265625 559.179688 C 541.871094 559.5625 545.53125 559.765625 549.238281 559.765625 C 600.71875 559.765625 643.367188 521.972656 650.925781 472.621094 C 660.511719 474.902344 670.503906 476.148438 680.789062 476.148438 C 751.765625 476.148438 809.304688 418.636719 809.304688 347.683594 C 809.304688 276.738281 751.765625 219.226562 680.789062 219.226562 Z M 680.789062 219.226562 " fill-opacity="1" fill-rule="nonzero"/></g></svg>