<?xml version="1.0" encoding="UTF-8"?><svg xmlns="http://www.w3.org/2000/svg" xmlns:xlink="http://www.w3.org/1999/xlink" contentScriptType="text/ecmascript" width="810" zoomAndPan="magnify" contentStyleType="text/css" viewBox="0 0 810 809.999993" height="809.999993" preserveAspectRatio="xMidYMid meet" version="1.0"><defs><clipPath id="clip-0"><path d="M 195.09375 162.703125 L 645.179688 162.703125 L 645.179688 616.199219 L 195.09375 616.199219 Z M 195.09375 162.703125 " clip-rule="nonzero"/></clipPath><clipPath id="clip-1"><path d="M 167 261 L 550 261 L 550 644.953125 L 167 644.953125 Z M 167 261 " clip-rule="nonzero"/></clipPath></defs><path fill="rgb(90.979004%, 74.899292%, 73.329163%)" d="M 405 0 C 181.324219 0 0 181.324219 0 405 C 0 628.675781 181.324219 810 405 810 C 628.675781 810 810 628.675781 810 405 C 810 181.324219 628.675781 0 405 0 Z M 405 0 " fill-opacity="1" fill-rule="nonzero"/><g clip-path="url(#clip-0)"><path fill="rgb(89.408875%, 89.408875%, 89.019775%)" d="M 643.730469 162.867188 C 635.324219 168.507812 574.128906 229.53125 561.082031 243 C 559.417969 244.722656 557.75 246.441406 556.078125 248.160156 C 549.972656 254.46875 543.863281 260.777344 537.753906 267.082031 L 543.578125 272.09375 C 565.730469 248.433594 639.207031 170.832031 644.945312 164.242188 C 645.652344 163.433594 644.621094 162.269531 643.730469 162.867188 Z M 558.789062 320.945312 C 556.164062 311.835938 550.105469 304.1875 544.191406 296.792969 C 539.203125 290.558594 534.21875 284.328125 529.226562 278.09375 C 525.710938 273.699219 522.160156 269.265625 517.796875 265.710938 C 509.273438 258.761719 498.128906 253.859375 487.222656 252.492188 C 481.785156 251.808594 476.34375 253.757812 472.351562 257.519531 C 432.398438 295.128906 392.347656 334.589844 355.292969 375.21875 C 322.703125 410.953125 282.066406 453.03125 247.679688 488.183594 C 244.574219 491.359375 242.917969 495.691406 243.199219 500.125 C 243.828125 510.226562 247.921875 520.105469 253.710938 528.511719 C 260.9375 539.003906 270.660156 547.507812 280.511719 555.578125 C 289.824219 563.207031 300.875 570.957031 312.546875 570.550781 C 314.902344 570.46875 317.144531 569.523438 318.859375 567.902344 C 324.535156 562.542969 330.753906 556.753906 336.257812 551.53125 C 342.726562 545.382812 348.382812 538.359375 355.203125 532.601562 C 358.765625 529.59375 415.515625 471.671875 439.0625 451.347656 C 450.308594 441.636719 462.0625 430.976562 472.453125 420.316406 C 475.269531 417.429688 477.972656 414.433594 480.554688 411.34375 C 486.046875 404.761719 491.910156 398.496094 497.878906 392.335938 C 516.25 373.375 534.625 354.363281 554.320312 336.78125 C 558.75 332.828125 560.4375 326.648438 558.789062 320.945312 Z M 281.964844 585.425781 C 278.25 589.742188 274.214844 594.167969 272.375 595.75 C 264.582031 602.457031 256.820312 609.484375 249.03125 616.191406 C 244.351562 616.144531 239.542969 616.078125 235.207031 614.316406 C 232.960938 613.40625 230.914062 612.066406 228.945312 610.65625 C 216.90625 602.0625 206.984375 590.53125 200.285156 577.34375 C 197.796875 572.445312 193.152344 565.585938 196.675781 561.378906 C 206.222656 549.996094 216.347656 539.109375 227 528.757812 L 281.964844 585.425781 " fill-opacity="1" fill-rule="nonzero"/></g><path fill="rgb(52.938843%, 52.938843%, 63.919067%)" d="M 463.445312 413.175781 C 435.453125 441.941406 419.632812 452.558594 393.085938 479.929688 C 378.5 494.964844 365.230469 511.238281 350.699219 526.324219 C 340.359375 537.066406 330.0625 547.953125 318.53125 557.40625 C 312.355469 557.175781 306.417969 554.9375 300.902344 552.148438 C 283.417969 543.3125 269.027344 528.480469 260.714844 510.730469 C 258.460938 505.921875 256.640625 500.300781 258.695312 495.402344 C 260.289062 491.59375 263.148438 488.355469 266.023438 485.390625 C 313.234375 436.742188 370.421875 386.664062 416 336.484375 C 420.800781 341.648438 425.320312 347.742188 428.976562 353.773438 C 431.722656 358.300781 434.140625 363.066406 437.464844 367.191406 C 443.476562 374.648438 452.453125 380.070312 455.78125 389.054688 C 458.433594 396.214844 458.414062 407.425781 463.445312 413.175781 " fill-opacity="1" fill-rule="nonzero"/><g clip-path="url(#clip-1)"><path fill="rgb(22.349548%, 22.349548%, 42.349243%)" d="M 457.984375 297.71875 C 452.730469 294.5625 448.289062 290.113281 445.144531 284.847656 L 443.785156 285.660156 C 447.058594 291.148438 457.984375 297.71875 457.984375 297.71875 Z M 434.011719 295.25 L 432.613281 295.996094 C 434.632812 299.789062 437.617188 303.007812 441.246094 305.300781 C 441.246094 305.300781 435.902344 298.800781 434.011719 295.25 Z M 424.621094 304.726562 L 423.214844 305.460938 C 425.144531 309.144531 428.007812 312.289062 431.496094 314.558594 C 431.496094 314.558594 426.425781 308.167969 424.621094 304.726562 Z M 414.609375 314.207031 L 413.207031 314.9375 C 415.023438 318.441406 417.609375 321.597656 420.683594 324.074219 C 420.683594 324.074219 416.328125 317.515625 414.609375 314.207031 Z M 402.890625 326.324219 L 401.53125 327.148438 C 406.460938 335.316406 412.761719 342.453125 420.257812 348.351562 C 420.257812 348.351562 407.71875 334.335938 402.890625 326.324219 Z M 389.523438 341.777344 L 388.027344 342.3125 C 389.554688 346.566406 392.160156 350.375 395.574219 353.335938 C 395.574219 353.335938 390.953125 345.773438 389.523438 341.777344 Z M 374.921875 355.480469 L 373.664062 356.445312 C 377.585938 361.554688 382.1875 366.113281 387.335938 369.984375 C 387.335938 369.984375 378.757812 360.476562 374.921875 355.480469 Z M 361.296875 369.863281 L 359.855469 370.519531 C 361.996094 375.242188 365.617188 379.324219 370.050781 382.007812 C 370.050781 382.007812 363.3125 374.296875 361.296875 369.863281 Z M 345.148438 386.613281 L 343.679688 387.222656 C 346.011719 392.8125 350.082031 397.71875 355.148438 401.039062 C 355.148438 401.039062 347.355469 391.910156 345.148438 386.613281 Z M 353.15625 423.78125 C 348.054688 418.382812 343.253906 412.59375 338.890625 406.582031 C 336.875 403.800781 334.886719 400.808594 334.613281 397.476562 L 333.027344 397.605469 C 333.335938 401.347656 335.460938 404.550781 337.605469 407.511719 C 342.011719 413.578125 353.15625 423.78125 353.15625 423.78125 Z M 329.792969 428.054688 C 326.070312 424.03125 322.6875 419.644531 319.738281 415.019531 L 318.402344 415.871094 C 321.402344 420.574219 329.792969 428.054688 329.792969 428.054688 Z M 302.992188 431.546875 L 301.40625 431.59375 C 301.589844 437.636719 304.726562 443.621094 309.59375 447.207031 C 309.59375 447.207031 303.164062 437.113281 302.992188 431.546875 Z M 280.105469 455.253906 L 278.660156 455.910156 C 281.035156 461.171875 284.226562 465.988281 288.144531 470.230469 C 288.144531 470.230469 282.414062 460.363281 280.105469 455.253906 Z M 549.125 285.378906 C 550.21875 282.183594 549.757812 278.675781 547.894531 275.859375 C 544.589844 270.855469 540.375 267.148438 534.863281 263.613281 C 533.402344 262.679688 531.800781 261.804688 530.074219 261.789062 C 528.375 261.769531 526.792969 262.570312 525.292969 263.359375 C 516.359375 268.0625 507.941406 272.996094 499.273438 278.175781 C 497.460938 282.015625 498.621094 286.640625 500.648438 290.371094 C 503.3125 295.277344 507.332031 299.285156 511.296875 303.21875 C 514.351562 306.246094 517.464844 309.320312 521.242188 311.371094 C 525.027344 313.417969 529.644531 314.347656 533.675781 312.84375 C 537.355469 307.15625 541.019531 301.445312 544.699219 295.757812 C 546.65625 292.734375 547.882812 288.980469 549.125 285.378906 Z M 525.113281 328 C 500.507812 313.964844 482.039062 288.851562 474.550781 261.527344 C 473.304688 264.535156 474.113281 267.964844 475.089844 271.070312 C 483.367188 297.414062 503.207031 319.894531 528.316406 331.378906 C 532.773438 333.414062 537.675781 335.152344 542.488281 334.226562 C 536.023438 334.878906 530.761719 331.21875 525.113281 328 Z M 338.976562 548.855469 C 338.082031 549.761719 337.175781 550.65625 336.257812 551.53125 C 330.753906 556.753906 324.535156 562.542969 318.859375 567.902344 C 317.144531 569.523438 314.902344 570.46875 312.546875 570.550781 C 300.875 570.957031 289.824219 563.207031 280.511719 555.578125 C 270.660156 547.507812 260.9375 539.003906 253.710938 528.511719 C 247.921875 520.105469 243.828125 510.226562 243.199219 500.125 C 242.917969 495.691406 244.574219 491.359375 247.679688 488.183594 C 252.527344 483.226562 257.511719 478.117188 262.574219 472.921875 L 262.117188 472.464844 C 252.574219 466.160156 241.867188 461.613281 230.703125 459.128906 C 228.347656 458.605469 225.941406 458.167969 223.53125 458.324219 C 216.484375 458.785156 210.515625 464.453125 208.109375 471.097656 C 205.703125 477.742188 206.324219 485.128906 208.082031 491.972656 C 211.230469 504.214844 217.808594 515.285156 224.890625 525.753906 C 225.566406 526.753906 226.277344 527.757812 227.007812 528.761719 L 281.925781 585.390625 C 291.195312 592.632812 301.652344 597.96875 312.652344 602.796875 C 320.570312 606.269531 329.027344 609.125 337.667969 608.753906 C 341.527344 608.59375 347.394531 604.875 350.300781 602.339844 C 356.171875 597.222656 357.34375 565.808594 338.976562 548.855469 Z M 260.335938 606.296875 C 264.34375 614.328125 266.488281 623.296875 266.476562 632.273438 C 266.46875 635.949219 265.878906 640.070312 262.949219 642.285156 C 261.511719 643.371094 259.691406 643.824219 257.902344 644.03125 C 250.277344 644.910156 242.800781 641.714844 236.023438 638.121094 C 228.902344 634.351562 222.0625 630.054688 215.566406 625.28125 C 212.011719 622.667969 208.558594 619.910156 205.371094 616.859375 C 202.667969 614.269531 200.167969 611.476562 197.667969 608.691406 C 194.609375 605.273438 191.550781 601.855469 188.488281 598.4375 C 184.78125 594.300781 181.0625 590.144531 177.824219 585.628906 C 175.234375 582.007812 172.957031 578.167969 171.03125 574.152344 C 168.792969 569.488281 167.003906 564.453125 167.128906 559.28125 C 167.25 554.105469 169.582031 548.757812 174.023438 546.105469 C 176.453125 544.652344 179.324219 544.089844 182.152344 543.941406 C 190.109375 543.519531 198.191406 546.28125 204.226562 551.488281 L 204.769531 552.023438 C 202.035156 555.105469 199.332031 558.21875 196.675781 561.378906 C 193.152344 565.585938 197.796875 572.445312 200.285156 577.34375 C 206.984375 590.53125 216.90625 602.0625 228.945312 610.65625 C 230.914062 612.066406 232.960938 613.40625 235.207031 614.316406 C 239.542969 616.078125 244.351562 616.144531 249.03125 616.191406 C 252.804688 612.945312 256.566406 609.621094 260.332031 606.296875 L 260.335938 606.296875 " fill-opacity="1" fill-rule="nonzero"/></g><path fill="rgb(29.798889%, 29.798889%, 49.409485%)" d="M 198.378906 598.101562 C 187.136719 584.976562 175.273438 570.332031 173.019531 553.191406 C 172.113281 567.179688 180.082031 580.144531 188.816406 591.101562 C 197.199219 601.625 206.582031 611.351562 216.800781 620.101562 C 222.421875 624.917969 228.351562 629.484375 235.046875 632.644531 C 241.738281 635.808594 249.289062 637.519531 256.609375 636.402344 C 244.695312 635.519531 233.703125 630.035156 224.023438 623.027344 C 214.347656 616.015625 206.152344 607.179688 198.378906 598.101562 " fill-opacity="1" fill-rule="nonzero"/><path fill="rgb(29.798889%, 29.798889%, 49.409485%)" d="M 226.484375 511.597656 C 218.601562 500.5 216.691406 486.132812 214.234375 472.742188 C 213.355469 487.417969 217.449219 502.347656 225.691406 514.519531 C 228.464844 518.613281 231.679688 522.386719 234.886719 526.152344 C 239.816406 531.945312 244.753906 537.738281 249.6875 543.53125 C 253.988281 548.582031 258.300781 553.640625 262.964844 558.359375 C 274.308594 569.820312 287.609375 579.113281 300.832031 588.34375 C 309.492188 594.390625 324.1875 600.867188 334.910156 602.554688 C 326.785156 600.058594 305.695312 589.9375 290.25 577.6875 C 265.425781 557.988281 238.855469 529.015625 226.484375 511.597656 " fill-opacity="1" fill-rule="nonzero"/><path fill="rgb(29.798889%, 29.798889%, 49.409485%)" d="M 468.871094 400.875 C 468.574219 396.265625 465.664062 392.316406 463.34375 388.328125 C 455.246094 374.421875 453.402344 357.40625 444.433594 344.050781 C 440.980469 338.910156 436.238281 334.269531 430.265625 332.660156 C 422.265625 330.511719 416.179688 334.378906 413.464844 340.4375 C 417.167969 344.894531 420.257812 348.351562 420.257812 348.351562 C 417.667969 346.3125 415.226562 344.117188 412.925781 341.785156 C 411.96875 344.53125 411.65625 347.625 412.113281 350.773438 C 414.6875 368.585938 435.132812 378.828125 440.175781 396.097656 C 441.929688 402.09375 441.957031 409.128906 446.46875 413.445312 C 449.667969 416.503906 454.675781 417.347656 458.859375 415.894531 C 463.042969 414.433594 466.34375 410.882812 467.910156 406.742188 C 468.617188 404.871094 469 402.867188 468.871094 400.875 " fill-opacity="1" fill-rule="nonzero"/></svg>