<?xml version="1.0" encoding="UTF-8"?><svg xmlns="http://www.w3.org/2000/svg" xmlns:xlink="http://www.w3.org/1999/xlink" width="810" zoomAndPan="magnify" viewBox="0 0 810 809.999993" height="809.999993" preserveAspectRatio="xMidYMid meet" version="1.0"><path fill="rgb(100%, 100%, 100%)" d="M 286.636719 314.191406 C 286.636719 314.191406 303.765625 248.015625 394.886719 232.445312 C 486.007812 216.875 546.753906 283.046875 546.753906 283.046875 C 546.753906 283.046875 571.675781 229.332031 658.121094 265.144531 C 744.570312 300.953125 732.882812 376.46875 732.882812 376.46875 C 732.882812 376.46875 781.949219 369.460938 795.96875 420.84375 C 809.984375 472.226562 780.394531 501.03125 758.585938 508.039062 C 758.585938 508.039062 728.210938 569.542969 643.324219 528.28125 C 643.324219 528.28125 642.542969 557.867188 597.371094 570.320312 C 552.203125 582.777344 523.386719 557.085938 523.386719 557.085938 C 523.386719 557.085938 495.351562 592.898438 454.851562 554.75 C 454.851562 554.75 441.617188 590.5625 380.867188 584.335938 C 320.121094 578.105469 313.109375 525.171875 313.109375 525.171875 C 313.109375 525.171875 262.488281 574.214844 177.601562 545.410156 C 92.710938 516.605469 105.949219 480.792969 105.949219 480.792969 C 105.949219 480.792969 34.300781 495.585938 17.167969 450.433594 C 0.0351562 405.277344 84.921875 328.984375 139.4375 369.464844 C 139.4375 369.464844 147.226562 335.214844 187.722656 307.964844 C 228.222656 280.714844 286.636719 314.191406 286.636719 314.191406 Z M 286.636719 314.191406 " fill-opacity="1" fill-rule="nonzero"/></svg>